<svg width="24" height="24" viewBox="0 0 24 24" fill="white" xmlns="http://www.w3.org/2000/svg">
  <path d="M7.5 2C4.42 2 2 4.42 2 7.5v9C2 19.58 4.42 22 7.5 22h9c3.08 0 5.5-2.42 5.5-5.5v-9C22 4.42 19.58 2 16.5 2h-9zm0 2h9c1.93 0 3.5 1.57 3.5 3.5v9c0 1.93-1.57 3.5-3.5 3.5h-9c-1.93 0-3.5-1.57-3.5-3.5v-9C4 5.57 5.57 4 7.5 4zm9.75 1.5a1.25 1.25 0 100 2.5 1.25 1.25 0 000-2.5zM12 6.5A5.5 5.5 0 006.5 12 5.5 5.5 0 0012 17.5 5.5 5.5 0 0017.5 12 5.5 5.5 0 0012 6.5zm0 2a3.5 3.5 0 013.5 3.5A3.5 3.5 0 0112 15.5 3.5 3.5 0 018.5 12 3.5 3.5 0 0112 8.5z"/>
 </svg>